<svg width="18" height="19" viewBox="0 0 18 19" fill="none" xmlns="http://www.w3.org/2000/svg">
<path d="M12.4208 18.7917L9.16667 15.5375L10.1292 14.575L12.3979 16.8438L16.6146 12.6271L17.5771 13.6125L12.4208 18.7917ZM3.87292 13.5896L2.91042 12.6271L4.5375 11L2.91042 9.37292L3.87292 8.41042L5.5 10.0375L7.12708 8.41042L8.08958 9.37292L6.4625 11L8.08958 12.6271L7.12708 13.5896L5.5 11.9625L3.87292 13.5896ZM1.375 18.3333C1.00833 18.3333 0.6875 18.1958 0.4125 17.9208C0.1375 17.6458 0 17.325 0 16.9583V2.75C0 2.38333 0.1375 2.0625 0.4125 1.7875C0.6875 1.5125 1.00833 1.375 1.375 1.375H2.86458V0H4.35417V1.375H12.1458V0H13.6354V1.375H15.125C15.4917 1.375 15.8125 1.5125 16.0875 1.7875C16.3625 2.0625 16.5 2.38333 16.5 2.75V10.8167L15.125 12.1917V7.10417H1.375V16.9583H8.63958L10.0146 18.3333H1.375ZM1.375 5.72917H15.125V2.75H1.375V5.72917ZM1.375 5.72917V2.75V5.72917Z" fill="#0A65FF"/>
</svg>
