<svg width="12" height="19" viewBox="0 0 12 19" fill="none" xmlns="http://www.w3.org/2000/svg">
<path d="M4.71983 14.8698H6.27344V11.9792H8.51536V9.89583H6.27344V7.00521H4.71983V9.89583H2.49758V11.9792H4.71983V14.8698ZM1.17996 18.75C0.852191 18.75 0.57359 18.5981 0.344154 18.2943C0.114718 17.9904 0 17.6215 0 17.1875V4.71354C0 4.27951 0.114718 3.91059 0.344154 3.60677C0.57359 3.30295 0.852191 3.15104 1.17996 3.15104H9.83297C10.1607 3.15104 10.4393 3.30295 10.6688 3.60677C10.8982 3.91059 11.0129 4.27951 11.0129 4.71354V17.1875C11.0129 17.6215 10.8982 17.9904 10.6688 18.2943C10.4393 18.5981 10.1607 18.75 9.83297 18.75H1.17996ZM1.17996 17.1875H9.83297V4.71354H1.17996V17.1875ZM0.786638 1.5625V0H10.246V1.5625H0.786638ZM1.17996 4.71354V17.1875V4.71354Z" fill="#0A65FF"/>
</svg>
