<svg width="19" height="25" viewBox="0 0 19 25" fill="none" xmlns="http://www.w3.org/2000/svg">
<path d="M6.31274 20.8334C5.99809 20.8334 5.72277 20.6771 5.48677 20.3646C5.25078 20.0521 5.13279 19.6875 5.13279 19.2709V16.6667H7.57136V13.3594C7.07316 13.4115 6.57496 13.3203 6.07675 13.086C5.57855 12.8516 5.13279 12.4827 4.73947 11.9792V10.4688H3.75617L1.17993 7.05731C1.65191 6.46703 2.21567 5.98526 2.8712 5.612C3.52674 5.23874 4.19538 5.0521 4.87713 5.0521C5.27045 5.0521 5.71949 5.13457 6.22425 5.2995C6.72901 5.46443 7.17805 5.72919 7.57136 6.09377V4.16669H16.5194V18.099C16.5194 18.8629 16.3194 19.5096 15.9196 20.0391C15.5197 20.5686 15.0313 20.8334 14.4544 20.8334H6.31274ZM8.75132 16.6667H13.5695V18.099C13.5695 18.4462 13.6514 18.7283 13.8153 18.9453C13.9792 19.1623 14.1922 19.2709 14.4544 19.2709C14.7167 19.2709 14.9297 19.1623 15.0936 18.9453C15.2575 18.7283 15.3394 18.4462 15.3394 18.099V5.72919H8.75132V7.21356L13.4908 13.4896V14.6094H12.6452L10.1673 11.3281L9.83295 11.849C9.66251 12.1094 9.49207 12.309 9.32164 12.4479C9.1512 12.5868 8.96109 12.717 8.75132 12.8386V16.6667ZM4.28715 8.90627H5.91943V11.224C6.14231 11.415 6.36191 11.5582 6.57823 11.6537C6.79456 11.7492 7.01416 11.7969 7.23704 11.7969C7.56481 11.7969 7.89913 11.6797 8.24001 11.4453C8.58088 11.211 8.82999 10.9722 8.98731 10.7292L9.32164 10.2084L7.96468 8.41148C7.54514 7.85592 7.07316 7.41756 6.54874 7.09637C6.02431 6.77519 5.46711 6.6146 4.87713 6.6146C4.52314 6.6146 4.20193 6.67103 3.9135 6.78387C3.62506 6.89672 3.33008 7.04863 3.02853 7.2396L4.28715 8.90627ZM6.31274 19.2709H12.6648C12.5862 19.1667 12.5206 19.0235 12.4682 18.8412C12.4157 18.6589 12.3895 18.4549 12.3895 18.2292H6.31274V19.2709ZM6.31274 19.2709V18.2292V19.2709Z" fill="#0A65FF"/>
</svg>
