<svg width="25" height="25" viewBox="0 0 25 25" fill="none" xmlns="http://www.w3.org/2000/svg">
<path d="M15.4355 20.6179C15.6786 20.6179 15.8913 20.5268 16.0736 20.3445C16.2559 20.1622 16.347 19.9495 16.347 19.7064C16.347 19.4634 16.2559 19.2507 16.0736 19.0684C15.8913 18.8861 15.6786 18.795 15.4355 18.795C15.1925 18.795 14.9798 18.8861 14.7975 19.0684C14.6152 19.2507 14.5241 19.4634 14.5241 19.7064C14.5241 19.9495 14.6152 20.1622 14.7975 20.3445C14.9798 20.5268 15.1925 20.6179 15.4355 20.6179ZM14.6543 16.8679H16.2168V10.0189H14.6543V16.8679ZM11.5293 24.8106L6.06055 19.3419V11.5294L11.5293 6.06061H19.3418L24.8105 11.5294V19.3419L19.3418 24.8106H11.5293ZM12.1803 23.2481H18.6908L23.248 18.6908V12.1804L18.6908 7.62311H12.1803L7.62305 12.1804V18.6908L12.1803 23.2481Z" fill="#D12953"/>
</svg>
